<?xml version="1.0" encoding="UTF-8" standalone="no"?>
<svg
   id="svg1"
   sodipodi:docname="mono-todo.svg"
   viewBox="0 0 60 60"
   sodipodi:version="0.32"
   _SVGFile__filename="oldscale/actions/todo.svg"
   version="1.0"
   y="0"
   x="0"
   inkscape:version="1.2.2 (b0a8486541, 2022-12-01)"
   xmlns:inkscape="http://www.inkscape.org/namespaces/inkscape"
   xmlns:sodipodi="http://sodipodi.sourceforge.net/DTD/sodipodi-0.dtd"
   xmlns:xlink="http://www.w3.org/1999/xlink"
   xmlns="http://www.w3.org/2000/svg"
   xmlns:svg="http://www.w3.org/2000/svg"
   xmlns:rdf="http://www.w3.org/1999/02/22-rdf-syntax-ns#"
   xmlns:cc="http://creativecommons.org/ns#"
   xmlns:dc="http://purl.org/dc/elements/1.1/">
  <defs
     id="defs21">
    <linearGradient
       inkscape:collect="always"
       id="linearGradient932">
      <stop
         style="stop-color:#ff2c27;stop-opacity:1;"
         offset="0"
         id="stop928" />
      <stop
         style="stop-color:#207eff;stop-opacity:0.76996529;"
         offset="1"
         id="stop930" />
    </linearGradient>
    <linearGradient
       inkscape:collect="always"
       xlink:href="#linearGradient932"
       id="linearGradient934"
       x1="14.3355"
       y1="34.634836"
       x2="45.585113"
       y2="34.634836"
       gradientUnits="userSpaceOnUse" />
  </defs>
  <sodipodi:namedview
     id="base"
     bordercolor="#666666"
     inkscape:pageshadow="2"
     inkscape:window-y="0"
     pagecolor="#ffffff"
     inkscape:window-height="1003"
     inkscape:zoom="5.5342875"
     inkscape:window-x="0"
     borderopacity="1.0"
     inkscape:current-layer="g1726"
     inkscape:cx="35.867309"
     inkscape:cy="19.785745"
     inkscape:window-width="1920"
     inkscape:pageopacity="0.0"
     inkscape:showpageshadow="2"
     inkscape:pagecheckerboard="0"
     inkscape:deskcolor="#d1d1d1"
     showgrid="false"
     inkscape:window-maximized="1" />
  <g
     id="g1726"
     transform="translate(0 -.15625)">
    <g
       id="g1754"
       style="stroke:#ffffff"
       transform="translate(75)">
      <path
         id="path1120"
         style="stroke-linejoin:round;stroke-linecap:round;stroke-width:7.5;fill:none"
         d="m-65.05 12.176c-1.18 0-2.131 0.951-2.131 2.131v38.544c0 1.18 0.951 2.131 2.131 2.131h40.022c1.18 0 2.13-0.951 2.13-2.131v-38.544c0-1.18-0.95-2.131-2.13-2.131h-40.022z" />
      <path
         id="path1122"
         style="stroke-linejoin:round;stroke-linecap:round;stroke-width:8.6836;fill:none"
         d="m4.5192 5.6564c-1.108 0-2 0.892-2 2v7.5166c0 1.108 0.892 2 2 2h47.465c1.108 0 2-0.892 2-2v-7.5166c0-1.108-0.892-2-2-2h-47.465z"
         transform="matrix(.99588 0 0 .74906 -73.135 1.0939)" />
    </g>
    <rect
       id="rect788"
       ry="2"
       style="fill-rule:evenodd;fill:#ffffff"
       rx="2"
       transform="matrix(1.0653 0 0 1.2325 -.040352 -3.6669)"
       height="34.73"
       width="41.567"
       y="12.854"
       x="7.3778" />
    <path
       id="path839"
       style="stroke:#b3009c;stroke-width:1.76;fill:none;stroke-opacity:1"
       transform="matrix(1.0653 0 0 1.0653 -1.574 -2.4203)"
       d="m9.5371 25.012h40.668" />
    <path
       id="path840"
       style="stroke:#b3009c;stroke-width:1.76;fill:none;stroke-opacity:1"
       transform="matrix(1.0653 0 0 1.0653 -1.574 -2.4203)"
       d="m8.8173 44.23h41.928" />
    <path
       id="path843"
       style="stroke:#b3009c;stroke-width:1.76;fill:none;stroke-opacity:1"
       transform="matrix(1.0653 0 0 1.0653 -1.574 -2.4203)"
       d="m9.5371 34.621h40.668" />
    <path
       id="path845"
       style="stroke:#b3009c;stroke-width:1.76;fill:none;stroke-opacity:1"
       transform="matrix(1.0653 0 0 1.0653 -1.574 -2.4203)"
       d="m19.042 15.553v38.509" />
    <path
       id="path846"
       style="stroke:#b3009c;stroke-width:1.76;fill:none;stroke-opacity:1"
       transform="matrix(1.0653 0 0 1.0653 -1.574 -2.4203)"
       d="m29.447 15.553v38.509" />
    <path
       id="path848"
       style="stroke:#b3009c;stroke-width:1.76;fill:none;stroke-opacity:1"
       transform="matrix(1.0653 0 0 1.0653 -1.574 -2.4203)"
       d="m39.852 15.553v38.509" />
    <path
       id="rect850"
       style="stroke-linejoin:round;stroke:#0000b7;stroke-linecap:round;stroke-width:2.559;fill:none;stroke-opacity:1"
       transform="matrix(.97695 0 0 .97695 .55370 .48106)"
       d="m9.618 11.971c-1.2082 0-2.1809 0.973-2.1809 2.181v39.453c0 1.209 0.9727 2.181 2.1809 2.181h40.966c1.208 0 2.181-0.972 2.181-2.181v-39.453c0-1.208-0.973-2.181-2.181-2.181h-40.966z" />
    <path
       id="rect804"
       style="stroke-linejoin:round;fill-rule:evenodd;stroke:#0000b7;stroke-linecap:round;stroke-width:2.8945;fill:#18a8ff;fill-opacity:1;stroke-opacity:1"
       d="m4.5192 5.6564c-1.108 0-2 0.892-2 2v7.5166c0 1.108 0.892 2 2 2h47.465c1.108 0 2-0.892 2-2v-7.5166c0-1.108-0.892-2-2-2h-47.465z"
       transform="matrix(.99588 0 0 .74906 1.8649 1.0939)" />
    <path
       id="path1223"
       style="stroke-linejoin:round;stroke:#18a8ff;stroke-linecap:round;stroke-width:6.875;fill:none;stroke-opacity:1"
       d="m15.273 35.437c3.739 3.402 6.156 6.465 10.155 13.563 8.695-21.948 20.6-27.582 19.09-28.554-3.054-2.05-17.915 15.13-19.711 17.397-2.161-1.145-9.534-5.144-9.534-2.406z" />
    <path
       id="path844"
       style="stroke-linejoin:round;fill-rule:evenodd;stroke:#1219be;stroke-linecap:round;stroke-width:1.875;fill:url(#linearGradient934);fill-opacity:1;stroke-opacity:1"
       d="m15.273 35.437c3.739 3.402 6.156 6.465 10.155 13.563 8.695-21.948 20.6-27.582 19.09-28.554-3.054-2.05-17.915 15.13-19.711 17.397-2.161-1.145-9.534-5.144-9.534-2.406z" />
  </g>
  <metadata
     id="metadata18">
    <rdf:RDF>
      <cc:Work>
        <dc:format>image/svg+xml</dc:format>
        <dc:type
           rdf:resource="http://purl.org/dc/dcmitype/StillImage" />
        <cc:license
           rdf:resource="http://creativecommons.org/licenses/publicdomain/" />
        <dc:publisher>
          <cc:Agent
             rdf:about="http://openclipart.org/">
            <dc:title>Openclipart</dc:title>
          </cc:Agent>
        </dc:publisher>
      </cc:Work>
      <cc:License
         rdf:about="http://creativecommons.org/licenses/publicdomain/">
        <cc:permits
           rdf:resource="http://creativecommons.org/ns#Reproduction" />
        <cc:permits
           rdf:resource="http://creativecommons.org/ns#Distribution" />
        <cc:permits
           rdf:resource="http://creativecommons.org/ns#DerivativeWorks" />
      </cc:License>
    </rdf:RDF>
  </metadata>
</svg>
